HIERARCHY
ROOT Hips
{
	OFFSET	0.00	0.00	0.00
	CHANNELS 6 Xposition Yposition Zposition Zrotation Xrotation Yrotation
	JOINT Spine
	{
		OFFSET	 0.00	0.01	 0.00
		CHANNELS 3 Zrotation Xrotation Yrotation
		JOINT Spine1
		{
			OFFSET	 0.00	 2.45913012437421	 0.00
			CHANNELS 3 Zrotation Xrotation Yrotation
            JOINT Neck
            {
                OFFSET	 0.00	 2.48462964506057	 0.00
                CHANNELS 3 Zrotation Xrotation Yrotation
                JOINT Head
                {
                    OFFSET	 0.00	 0.927524780924562	 0.00
                    CHANNELS 3 Zrotation Xrotation Yrotation
                    End Site 
                    {
                        OFFSET	 0.00	 1.14999962169752	 0.00
                    }
                }
            }
			JOINT LeftShoulder
			{
				OFFSET	 0.00	 2.48462964506057	 0.00
				CHANNELS 3 Zrotation Xrotation Yrotation
				JOINT LeftUpArm
				{
					OFFSET	 0.00	 1.24881979654096	 0.00
					CHANNELS 3 Zrotation Xrotation Yrotation
					JOINT LeftForeArm
					{
						OFFSET	 0.00	2.59758046908119	 0.00
						CHANNELS 3 Zrotation Xrotation Yrotation
						JOINT LeftHand
						{
							OFFSET	 0.00	2.45542024364365	 0.00
							CHANNELS 3 Zrotation Xrotation Yrotation
							JOINT LeftHandThumb 
							{
								OFFSET	 0.00	0.00	 0.00
								CHANNELS 3 Zrotation Xrotation Yrotation
								End Site
								{
									OFFSET	 0.00	0.00	1.00000003353624
								}
							}
							JOINT L_Wrist_End 
							{
								OFFSET	 0.00	0.99999967115358	 0.00
								CHANNELS 3 Zrotation Xrotation Yrotation
								End Site 
								{
									OFFSET	 0.00	 0.00	 0.00
								}
							}
						}
					}
				}
			}
			JOINT RightShoulder
			{
				OFFSET	 0.00	 2.48462964506057	 0.00
				CHANNELS 3 Zrotation Xrotation Yrotation
				JOINT RightUpArm
				{
					OFFSET	 0.00	 1.24881979654096	 0.00
					CHANNELS 3 Zrotation Xrotation Yrotation
					JOINT RightForeArm
					{
						OFFSET	 0.00	2.59758046908119	 0.00
						CHANNELS 3 Zrotation Xrotation Yrotation
						JOINT RightHand
						{
							OFFSET	 0.00	2.45542024364365	 0.00
							CHANNELS 3 Zrotation Xrotation Yrotation
							JOINT RightHandThumb 
							{
								OFFSET	 0.00	0.00	 0.00
								CHANNELS 3 Zrotation Xrotation Yrotation
								End Site
								{
									OFFSET	 0.00	0.00	1.00000003353624
								}
							}
							JOINT R_Wrist_End 
							{
								OFFSET	 0.00	0.99999967115358	 0.00
								CHANNELS 3 Zrotation Xrotation Yrotation
								End Site 
								{
									OFFSET	 0.00	 0.00	 0.00
								}
							}
						}
					}
				}
			}
		}
	}
	JOINT LeftUpLeg
	{
		OFFSET	 1.2719394002717	 0.00	 0.00
		CHANNELS 3 Zrotation Xrotation Yrotation
		JOINT LeftLowLeg
		{
			OFFSET	 0.00	-4.3429100912261	 0.00
			CHANNELS 3 Zrotation Xrotation Yrotation
			JOINT LeftFoot
			{
				OFFSET	 0.00	-4.48767017425826	 0.00
				CHANNELS 3 Zrotation Xrotation Yrotation
				JOINT LeftToeBase
                {
                    OFFSET	 0.00	0.00	 1.51507020887566
                    CHANNELS 3 Zrotation Xrotation Yrotation
                    End Site 
                    {
                        OFFSET	 0.00	0.00	 0.75000010571191
                    }
                }
			}
		}
	}
	JOINT RightUpLeg
	{
		OFFSET	 -1.2719393604653	 0.00	 0.00
		CHANNELS 3 Zrotation Xrotation Yrotation
		JOINT RightLowLeg
		{
			OFFSET	 0.00	-4.3429100912261	 0.00
			CHANNELS 3 Zrotation Xrotation Yrotation
			JOINT RightFoot
			{
				OFFSET	 0.00	-4.48767017425826	 0.00
				CHANNELS 3 Zrotation Xrotation Yrotation
				JOINT RightToeBase
                {
                    OFFSET	 0.00	0.00	 1.51507020887566
                    CHANNELS 3 Zrotation Xrotation Yrotation
                    End Site 
                    {
                        OFFSET	 0.00	0.00	 0.749999965609858
                    }
                }   
			}
		}
	}
}
MOTION 
Frames:	8 
Frame Time: 0.02 
  -2.6988101196289063 -10.6731005859375 9.274149780273438 -149.612 53.2257 177.65 10.4789 33.4816 -1.47073 -5.97479 38.5433 7.10862 34.1648 40.6224 -56.5783 124.592 -54.0045 142.109 -94.88766 -1.09103 -37.736 -55.6583 66.5641 -1.4091 0.0 52.1453 0.0 33.2675 -9.32774 6.98478 0.0 0.0 0.0 0.0 0.0 0.0 109.4691 2.80003 6.8492 -84.8294 60.3295 -291.572 0.0 7.1284 0.0 -33.0209 -3.53103 -40.343 0.0 0.0 0.0 0.0 0.0 0.0 0.513393 -44.0434 -9.10824 0.0 1.27374 0.0 -10.547 8.17577 4.75051 0.0 -9.438 0.0 9.83852 -51.8889 373.479 0.0 26.5761 0.0 9.04713 -1.2716999 -16.9345 0.0 -18.39084 0.0 
  -2.6995999145507814 -10.674200439453125 9.274169921875 -149.386 53.3126 177.609 10.6302 33.5548 -1.63129 -6.14359 38.3476 6.93892 34.0999 40.7291 -56.5255 124.813 -53.8616 142.565 -94.8849 -1.14732 -37.6102 -55.3077 66.6411 -1.36664 0.0 52.3636 0.0 33.3118 -9.24574 7.3526 0.0 0.0 0.0 0.0 0.0 0.0 109.5777 2.86754 6.9203 -81.46 59.8894 -293.749 0.0 6.7052 0.0 -33.2687 -4.70432 -40.6288 0.0 0.0 0.0 0.0 0.0 0.0 0.513995 -43.9808 -9.28516 0.0 1.28035 0.0 -10.563 8.19923 4.75409 0.0 -9.42045 0.0 9.80458 -51.8037 373.323 0.0 26.6168 0.0 9.13085 -1.3563004 -16.973 0.0 -18.26563 0.0 
  -2.7 -10.67510009765625 9.274190063476562 -149.112 53.397 177.554 10.871 33.6169 -1.87688 -6.40284 38.1268 6.72328 33.8897 40.866 -56.2955 124.953 -53.7363 142.973 -94.85837 -1.23201 -37.4786 -54.7872 66.6785 -1.48943 0.0 52.5386 0.0 33.1656 -9.2582 6.61471 0.0 0.0 0.0 0.0 0.0 0.0 109.8135 3.13657 6.85159 -78.256 59.2685 -295.453 0.0 6.44171 0.0 -33.4483 -5.764 -41.2625 0.0 0.0 0.0 0.0 0.0 0.0 0.516643 -43.9215 -9.5441 0.0 1.28291 0.0 -10.5409 8.22307 4.80575 0.0 -9.40671 0.0 9.75336 -51.7055 373.089 0.0 26.6205 0.0 9.08613 -1.3262997 -16.9994 0.0 -18.422699 0.0 
  -2.7004299926757813 -10.676300048828125 9.274240112304687 -148.89 53.4768 177.491 10.9817 33.6448 -2.03399 -6.50074 37.9346 6.5376 33.4121 41.0929 -55.7811 125.304 -53.776 143.318 -94.90171 -1.13573 -37.3194 -53.9502 66.6243 -1.90176 0.0 52.6292 0.0 33.2151 -9.22127 6.67538 0.0 0.0 0.0 0.0 0.0 0.0 110.1412 3.45388 6.16875 -75.7703 57.9766 -296.71 0.0 6.18438 0.0 -33.4336 -7.39742 -40.1662 0.0 0.0 0.0 0.0 0.0 0.0 0.556378 -43.7857 -9.89404 0.0 1.14585 0.0 -10.5911 8.260469 5.00802 0.0 -9.39305 0.0 9.74017 -51.6096 372.945 0.0 26.6263 0.0 9.11188 -1.3456993 -16.9838 0.0 -18.264061 0.0 
  -2.700780029296875 -10.6777001953125 9.27448974609375 -148.704 53.5506 177.425 11.0445 33.6538 -2.13276 -6.64905 37.8289 6.38059 33.129 40.9716 -55.5646 125.248 -53.6095 143.555 -94.89512 -1.20155 -37.2092 -53.5719 66.6651 -2.02367 0.0 52.6084 0.0 33.467 -9.14848 7.40619 0.0 0.0 0.0 0.0 0.0 0.0 110.4505 3.66847 5.77014 -73.5866 56.9692 -297.048 0.0 6.11386 0.0 -33.3749 -9.21679 -38.145 0.0 0.0 0.0 0.0 0.0 0.0 0.60603 -43.6676 -10.0318 0.0 1.04887 0.0 -10.6067 8.30336 5.04599 0.0 -9.429319 0.0 9.74568 -51.5132 372.861 0.0 26.6208 0.0 9.20585 -1.3922005 -17.0661 0.0 -18.61513 0.0 
  -2.700799865722656 -10.67969970703125 9.275440063476562 -148.522 53.6519 177.328 11.0875 33.6457 -2.1934 -6.74138 37.7406 6.28813 32.7236 40.9166 -55.243 125.349 -53.5738 143.775 -94.9334 -1.06595 -36.9627 -52.868 66.7088 -2.5471 0.0 52.5027 0.0 33.2439 -9.14282 6.86574 0.0 0.0 0.0 0.0 0.0 0.0 110.5512 3.78814 5.5476 -71.4667 56.2673 -296.823 0.0 6.0742 0.0 -33.4206 -11.0442 -35.0429 0.0 0.0 0.0 0.0 0.0 0.0 0.683135 -43.5083 -10.1648 0.0 0.930696 0.0 -10.6096 8.35667 5.13379 0.0 -9.36109 0.0 9.77397 -51.3723 372.793 0.0 26.5826 0.0 9.09933 -1.3068008 -17.0957 0.0 -18.40335 0.0 
  -2.7008099365234375 -10.680999755859375 9.276699829101563 -148.407 53.6954 177.263 11.1174 33.5884 -2.2321 -6.91799 37.6237 6.18251 32.3791 40.7873 -54.9299 125.245 -53.5056 143.794 -95.00726 -0.995017 -36.5808 -52.0724 66.9372 -3.1279 0.0 52.2817 0.0 33.4248 -9.22038 7.70711 0.0 0.0 0.0 0.0 0.0 0.0 110.6691 3.92197 5.37372 -69.5189 55.7088 -296.099 0.0 6.19801 0.0 -33.4415 -12.6348 -31.5623 0.0 0.0 0.0 0.0 0.0 0.0 0.725324 -43.4307 -10.4603 0.0 0.878445 0.0 -10.6312 8.34852 5.40501 0.0 -9.28092 0.0 9.83183 -51.3103 372.862 0.0 26.5832 0.0 9.09499 -1.2702999 -17.2018 0.0 -18.56865 0.0 
  -2.7015301513671877 -10.6818994140625 9.278140258789062 -148.314 53.7252 177.186 11.1468 33.5302 -2.23139 -7.14123 37.4389 6.10434 31.9988 40.7191 -54.513 125.186 -53.48 143.731 -95.05002 -0.865297 -36.3727 -51.5128 66.9368 -3.3739 0.0 51.9928 0.0 33.5013 -9.11397 7.80577 0.0 0.0 0.0 0.0 0.0 0.0 110.883804 4.15052 5.19631 -67.7538 55.1671 -295.242 0.0 6.48401 0.0 -32.9084 -14.0495 -28.4573 0.0 0.0 0.0 0.0 0.0 0.0 0.774104 -43.4378 -10.3817 0.0 0.938597 0.0 -10.4702 8.365419 5.37808 0.0 -9.204599 0.0 9.85411 -51.245 372.821 0.0 26.5278 0.0 9.16078 -1.2248001 -17.1139 0.0 -18.40832 0.0 
